<svg width="240" height="80" xmlns="http://www.w3.org/2000/svg" fill="none">
 <g>
  <title>Layer 1</title>
  <g id="svg_4">
   <text font-style="italic" font-weight="normal" xml:space="preserve" text-anchor="start" font-family="'Harlow Solid Italic'" font-size="36" stroke-width="0" id="svg_2" y="48.75" x="56.6126" fill="#ffffff">Hare</text>
   <path stroke="null" id="svg_3" d="m173.51951,56.39955c1.41111,-0.53098 -0.43028,-1.5926 -1.12742,-2.06221c-0.46958,-0.36166 2.6912,0.05073 1.35675,-1.20473c-1.46409,-1.02565 -0.91104,-2.76082 0.55242,-3.56739c2.01403,-1.13474 4.59815,-2.10591 5.3422,-4.22477c0.75235,-1.31974 -1.03186,-2.7097 0.11573,-3.90147c0.92371,-1.54738 -0.15545,-3.16097 -0.82622,-4.59438c-0.30847,-1.98283 1.58117,-3.55087 2.62036,-5.17987c1.28675,-1.55671 2.02849,-3.37064 2.13508,-5.26096c0.27983,-0.80687 -0.02985,-2.05992 -1.14728,-0.9721c-2.34007,1.56352 -4.90907,3.04711 -6.54684,5.18719c-0.31001,0.77301 -1.55137,3.01343 -1.62068,0.98461c-0.03247,-2.78848 -1.05312,-5.82973 -3.66847,-7.69836c-1.77892,-1.35256 -2.73828,1.01572 -2.82128,2.21919c-0.46302,2.36793 0.30449,4.71611 1.15976,6.95294c0.31398,1.03953 1.13166,3.88821 -1.20038,2.83785c-5.37218,-1.73068 -11.88099,0.087 -15.3802,3.80487c-1.60856,1.80015 -2.313,4.11291 -2.2971,6.33356c0.82828,1.30462 -2.24923,-0.02444 -1.13409,1.4807c0.65647,1.66733 2.51126,2.57205 3.81048,3.83054c1.32207,1.00845 0.34113,3.16456 2.52745,3.48226c3.1901,0.8206 6.53997,1.18006 9.86097,1.38928c1.85842,0.3177 2.76033,-1.45551 0.97909,-2.19268c-0.85397,-1.0985 -3.29716,-1.17548 -4.02308,-1.3495c1.73471,0.14163 3.87405,-0.44918 5.3358,0.44728c0.88525,1.19916 1.59427,2.77751 3.45065,3.11979c0.83426,0.19334 1.69202,0.34838 2.54628,0.13837l0,0z" stroke-width="0" fill="#ffffff"/>
  </g>
 </g>

</svg>